<?xml version="1.0" encoding="utf-8"?>
<!-- Generator: Adobe Illustrator 19.1.0, SVG Export Plug-In . SVG Version: 6.00 Build 0)  -->
<svg version="1.1" id="Layer_1" xmlns="http://www.w3.org/2000/svg" xmlns:xlink="http://www.w3.org/1999/xlink" x="0px" y="0px"
	 viewBox="0 0 46.2 46.2" style="enable-background:new 0 0 46.2 46.2;" xml:space="preserve">
<path d="M43.2,17.8v-6.2l-5.4-3.1l-3.1-5.4h-6.2L23.1,0l-5.4,3.1h-6.2L8.5,8.5l-5.4,3.1v6.2L0,23.1l3.1,5.4v6.2l5.4,3.1l3.1,5.4h6.2
	l5.4,3.1l5.4-3.1h6.2l3.1-5.4l5.4-3.1v-6.2l3.1-5.4L43.2,17.8z M42,28.2V34l-5,2.9L34,42h-5.8l-5,2.9l-5-2.9h-5.8l-2.9-5l-5-2.9
	v-5.8l-2.9-5l2.9-5v-5.8l5-2.9l2.9-5h5.8l5-2.9l5,2.9H34l2.9,5l5,2.9v5.8l2.9,5L42,28.2z"/>
<path d="M40.5,18.5v-5.4l-4.7-2.7l-2.7-4.7h-5.4l-4.7-2.7l-4.7,2.7h-5.4l-2.7,4.7l-4.7,2.7v5.4l-2.7,4.7l2.7,4.7v5.4l4.7,2.7
	l2.7,4.7h5.4l4.7,2.7l4.7-2.7h5.4l2.7-4.7l4.7-2.7v-5.4l2.7-4.7L40.5,18.5z M23.1,37.9c-2,0-3.6-1.6-3.6-3.5c0-2,1.6-3.6,3.6-3.6
	c1.9,0,3.5,1.6,3.5,3.6C26.6,36.3,25,37.9,23.1,37.9z M30,20.6c-0.7,1.1-1.6,2.2-2.4,3.3c-0.7,0.9-0.8,1.3-1.2,2.3
	c-0.2,0.6-0.9,2.2-3.1,2.2c-2.1,0-3.4-1.6-3.4-3.4c0-1.8,1.2-3.2,2.2-4.4c2-2.4,2.8-3.3,2.8-5.2c0-0.7-0.1-2.2-1.5-2.2
	c-1,0-1.3,0.8-1.5,1.5c-0.1,0.3-0.2,0.7-0.4,1c-0.5,0.8-1.6,1.4-2.7,1.4c-1.7,0-3.2-1.2-3.2-3.2c0-2.7,2.7-5.7,7.8-5.7
	c5.6,0,8.1,3.1,8.1,7.2C31.5,17.4,31,19,30,20.6z"/>
</svg>
