<svg xmlns="http://www.w3.org/2000/svg" class="hide">
<linearGradient id="MainGradient" gradientUnits="userSpaceOnUse" x1="19.8775" y1="6.7094" x2="29.7279" y2="56.8773">
<stop class="main-top-gradient" offset="0"/>
<stop class="main-bottom-gradient" offset="1"/>
</linearGradient>
<linearGradient id="AltGradient" gradientUnits="userSpaceOnUse" x1="19.8775" y1="6.7094" x2="29.7279" y2="56.8773">
<stop class="alt-top-gradient" offset="0"/>
<stop class="alt-bottom-gradient" offset="1"/>
</linearGradient>
<style type="text/css"><![CDATA[
.za-icon-mainColor { fill: url(#MainGradient); }
.za-icon-altColor { fill: url(#AltGradient); }
]]></style>
<symbol id="za-svg-angle-double-down" viewBox="0 0 1792 1792"><path d="M1395 864q0 13-10 23l-466 466q-10 10-23 10t-23-10l-466-466q-10-10-10-23t10-23l50-50q10-10 23-10t23 10l393 393 393-393q10-10 23-10t23 10l50 50q10 10 10 23zm0-384q0 13-10 23l-466 466q-10 10-23 10t-23-10l-466-466q-10-10-10-23t10-23l50-50q10-10 23-10t23 10l393 393 393-393q10-10 23-10t23 10l50 50q10 10 10 23z"/></symbol>
<symbol id="za-svg-angle-double-left" viewBox="0 0 1792 1792"><path d="M1011 1376q0 13-10 23l-50 50q-10 10-23 10t-23-10l-466-466q-10-10-10-23t10-23l466-466q10-10 23-10t23 10l50 50q10 10 10 23t-10 23l-393 393 393 393q10 10 10 23zm384 0q0 13-10 23l-50 50q-10 10-23 10t-23-10l-466-466q-10-10-10-23t10-23l466-466q10-10 23-10t23 10l50 50q10 10 10 23t-10 23l-393 393 393 393q10 10 10 23z"/></symbol>
<symbol id="za-svg-angle-double-right" viewBox="0 0 1792 1792"><path d="M979 960q0 13-10 23l-466 466q-10 10-23 10t-23-10l-50-50q-10-10-10-23t10-23l393-393-393-393q-10-10-10-23t10-23l50-50q10-10 23-10t23 10l466 466q10 10 10 23zm384 0q0 13-10 23l-466 466q-10 10-23 10t-23-10l-50-50q-10-10-10-23t10-23l393-393-393-393q-10-10-10-23t10-23l50-50q10-10 23-10t23 10l466 466q10 10 10 23z"/></symbol>
<symbol id="za-svg-angle-double-up" viewBox="0 0 1792 1792"><path d="M1395 1312q0 13-10 23l-50 50q-10 10-23 10t-23-10l-393-393-393 393q-10 10-23 10t-23-10l-50-50q-10-10-10-23t10-23l466-466q10-10 23-10t23 10l466 466q10 10 10 23zm0-384q0 13-10 23l-50 50q-10 10-23 10t-23-10l-393-393-393 393q-10 10-23 10t-23-10l-50-50q-10-10-10-23t10-23l466-466q10-10 23-10t23 10l466 466q10 10 10 23z"/></symbol>
<symbol id="za-svg-angle-down" viewBox="0 0 1792 1792"><path d="M1395 736q0 13-10 23l-466 466q-10 10-23 10t-23-10l-466-466q-10-10-10-23t10-23l50-50q10-10 23-10t23 10l393 393 393-393q10-10 23-10t23 10l50 50q10 10 10 23z"/></symbol>
<symbol id="za-svg-angle-left" viewBox="0 0 1792 1792"><path d="M1203 544q0 13-10 23l-393 393 393 393q10 10 10 23t-10 23l-50 50q-10 10-23 10t-23-10l-466-466q-10-10-10-23t10-23l466-466q10-10 23-10t23 10l50 50q10 10 10 23z"/></symbol>
<symbol id="za-svg-angle-right" viewBox="0 0 1792 1792"><path d="M1171 960q0 13-10 23l-466 466q-10 10-23 10t-23-10l-50-50q-10-10-10-23t10-23l393-393-393-393q-10-10-10-23t10-23l50-50q10-10 23-10t23 10l466 466q10 10 10 23z"/></symbol>
<symbol id="za-svg-angle-up" viewBox="0 0 1792 1792"><path d="M1395 1184q0 13-10 23l-50 50q-10 10-23 10t-23-10l-393-393-393 393q-10 10-23 10t-23-10l-50-50q-10-10-10-23t10-23l466-466q10-10 23-10t23 10l466 466q10 10 10 23z"/></symbol>
<symbol id="za-svg-bar-chart" viewBox="0 0 1792 1792"><path d="M512 896v512h-256v-512h256zm384-512v1024h-256v-1024h256zm1024 1152v128h-2048v-1536h128v1408h1920zm-640-896v768h-256v-768h256zm384-384v1152h-256v-1152h256z"/></symbol>
<symbol id="za-svg-bar-chart-o" viewBox="0 0 1792 1792"><path d="M512 896v512h-256v-512h256zm384-512v1024h-256v-1024h256zm1024 1152v128h-2048v-1536h128v1408h1920zm-640-896v768h-256v-768h256zm384-384v1152h-256v-1152h256z"/></symbol>
<symbol id="za-svg-bars" viewBox="0 0 1792 1792"><path d="M1664 1344v128q0 26-19 45t-45 19h-1408q-26 0-45-19t-19-45v-128q0-26 19-45t45-19h1408q26 0 45 19t19 45zm0-512v128q0 26-19 45t-45 19h-1408q-26 0-45-19t-19-45v-128q0-26 19-45t45-19h1408q26 0 45 19t19 45zm0-512v128q0 26-19 45t-45 19h-1408q-26 0-45-19t-19-45v-128q0-26 19-45t45-19h1408q26 0 45 19t19 45z"/></symbol>
<symbol id="za-svg-ban" viewBox="0 0 1792 1792"><path d="M1440 893q0-161-87-295l-754 753q137 89 297 89 111 0 211.5-43.5t173.5-116.5 116-174.5 43-212.5zm-999 299l755-754q-135-91-300-91-148 0-273 73t-198 199-73 274q0 162 89 299zm1223-299q0 157-61 300t-163.5 246-245 164-298.5 61-298.5-61-245-164-163.5-246-61-300 61-299.5 163.5-245.5 245-164 298.5-61 298.5 61 245 164 163.5 245.5 61 299.5z"/></symbol>
<symbol id="za-svg-bell" viewBox="0 0 1792 1792"><path d="M912 1696q0-16-16-16-59 0-101.5-42.5t-42.5-101.5q0-16-16-16t-16 16q0 73 51.5 124.5t124.5 51.5q16 0 16-16zm816-288q0 52-38 90t-90 38h-448q0 106-75 181t-181 75-181-75-75-181h-448q-52 0-90-38t-38-90q50-42 91-88t85-119.5 74.5-158.5 50-206 19.5-260q0-152 117-282.5t307-158.5q-8-19-8-39 0-40 28-68t68-28 68 28 28 68q0 20-8 39 190 28 307 158.5t117 282.5q0 139 19.5 260t50 206 74.5 158.5 85 119.5 91 88z"/></symbol>
<symbol id="za-svg-bell-o" viewBox="0 0 1792 1792"><path d="M912 1696q0-16-16-16-59 0-101.5-42.5t-42.5-101.5q0-16-16-16t-16 16q0 73 51.5 124.5t124.5 51.5q16 0 16-16zm-666-288h1300q-266-300-266-832 0-51-24-105t-69-103-121.5-80.5-169.5-31.5-169.5 31.5-121.5 80.5-69 103-24 105q0 532-266 832zm1482 0q0 52-38 90t-90 38h-448q0 106-75 181t-181 75-181-75-75-181h-448q-52 0-90-38t-38-90q50-42 91-88t85-119.5 74.5-158.5 50-206 19.5-260q0-152 117-282.5t307-158.5q-8-19-8-39 0-40 28-68t68-28 68 28 28 68q0 20-8 39 190 28 307 158.5t117 282.5q0 139 19.5 260t50 206 74.5 158.5 85 119.5 91 88z"/></symbol>
<symbol id="za-svg-briefcase" viewBox="0 0 1792 1792"><path d="M640 256h512v-128h-512v128zm1152 640v480q0 66-47 113t-113 47h-1472q-66 0-113-47t-47-113v-480h672v160q0 26 19 45t45 19h320q26 0 45-19t19-45v-160h672zm-768 0v128h-256v-128h256zm768-480v384h-1792v-384q0-66 47-113t113-47h352v-160q0-40 28-68t68-28h576q40 0 68 28t28 68v160h352q66 0 113 47t47 113z"/></symbol>
<symbol id="za-svg-bullhorn" viewBox="0 0 1792 1792"><path d="M1664 640q53 0 90.5 37.5t37.5 90.5-37.5 90.5-90.5 37.5v384q0 52-38 90t-90 38q-417-347-812-380-58 19-91 66t-31 100.5 40 92.5q-20 33-23 65.5t6 58 33.5 55 48 50 61.5 50.5q-29 58-111.5 83t-168.5 11.5-132-55.5q-7-23-29.5-87.5t-32-94.5-23-89-15-101 3.5-98.5 22-110.5h-122q-66 0-113-47t-47-113v-192q0-66 47-113t113-47h480q435 0 896-384 52 0 90 38t38 90v384zm-128 604v-954q-394 302-768 343v270q377 42 768 341z"/></symbol>
<symbol id="za-svg-calculator" viewBox="0 0 1792 1792"><path d="M384 1536q0-53-37.5-90.5t-90.5-37.5-90.5 37.5-37.5 90.5 37.5 90.5 90.5 37.5 90.5-37.5 37.5-90.5zm384 0q0-53-37.5-90.5t-90.5-37.5-90.5 37.5-37.5 90.5 37.5 90.5 90.5 37.5 90.5-37.5 37.5-90.5zm-384-384q0-53-37.5-90.5t-90.5-37.5-90.5 37.5-37.5 90.5 37.5 90.5 90.5 37.5 90.5-37.5 37.5-90.5zm768 384q0-53-37.5-90.5t-90.5-37.5-90.5 37.5-37.5 90.5 37.5 90.5 90.5 37.5 90.5-37.5 37.5-90.5zm-384-384q0-53-37.5-90.5t-90.5-37.5-90.5 37.5-37.5 90.5 37.5 90.5 90.5 37.5 90.5-37.5 37.5-90.5zm-384-384q0-53-37.5-90.5t-90.5-37.5-90.5 37.5-37.5 90.5 37.5 90.5 90.5 37.5 90.5-37.5 37.5-90.5zm768 384q0-53-37.5-90.5t-90.5-37.5-90.5 37.5-37.5 90.5 37.5 90.5 90.5 37.5 90.5-37.5 37.5-90.5zm-384-384q0-53-37.5-90.5t-90.5-37.5-90.5 37.5-37.5 90.5 37.5 90.5 90.5 37.5 90.5-37.5 37.5-90.5zm768 768v-384q0-52-38-90t-90-38-90 38-38 90v384q0 52 38 90t90 38 90-38 38-90zm-384-768q0-53-37.5-90.5t-90.5-37.5-90.5 37.5-37.5 90.5 37.5 90.5 90.5 37.5 90.5-37.5 37.5-90.5zm384-320v-256q0-26-19-45t-45-19h-1280q-26 0-45 19t-19 45v256q0 26 19 45t45 19h1280q26 0 45-19t19-45zm0 320q0-53-37.5-90.5t-90.5-37.5-90.5 37.5-37.5 90.5 37.5 90.5 90.5 37.5 90.5-37.5 37.5-90.5zm128-640v1536q0 52-38 90t-90 38h-1408q-52 0-90-38t-38-90v-1536q0-52 38-90t90-38h1408q52 0 90 38t38 90z"/></symbol>
<symbol id="za-svg-calendar" viewBox="0 0 1792 1792"><path d="M192 1664h288v-288h-288v288zm352 0h320v-288h-320v288zm-352-352h288v-320h-288v320zm352 0h320v-320h-320v320zm-352-384h288v-288h-288v288zm736 736h320v-288h-320v288zm-384-736h320v-288h-320v288zm768 736h288v-288h-288v288zm-384-352h320v-320h-320v320zm-352-864v-288q0-13-9.5-22.5t-22.5-9.5h-64q-13 0-22.5 9.5t-9.5 22.5v288q0 13 9.5 22.5t22.5 9.5h64q13 0 22.5-9.5t9.5-22.5zm736 864h288v-320h-288v320zm-384-384h320v-288h-320v288zm384 0h288v-288h-288v288zm32-480v-288q0-13-9.5-22.5t-22.5-9.5h-64q-13 0-22.5 9.5t-9.5 22.5v288q0 13 9.5 22.5t22.5 9.5h64q13 0 22.5-9.5t9.5-22.5zm384-64v1280q0 52-38 90t-90 38h-1408q-52 0-90-38t-38-90v-1280q0-52 38-90t90-38h128v-96q0-66 47-113t113-47h64q66 0 113 47t47 113v96h384v-96q0-66 47-113t113-47h64q66 0 113 47t47 113v96h128q52 0 90 38t38 90z"/></symbol>
<symbol id="za-svg-caret-down" viewBox="0 0 1792 1792"><path d="M1408 704q0 26-19 45l-448 448q-19 19-45 19t-45-19l-448-448q-19-19-19-45t19-45 45-19h896q26 0 45 19t19 45z"/></symbol>
<symbol id="za-svg-check" viewBox="0 0 1792 1792"><path d="M1671 566q0 40-28 68l-724 724-136 136q-28 28-68 28t-68-28l-136-136-362-362q-28-28-28-68t28-68l136-136q28-28 68-28t68 28l294 295 656-657q28-28 68-28t68 28l136 136q28 28 28 68z"/></symbol>
<symbol id="za-svg-check-circle" viewBox="0 0 1792 1792"><path d="M1412 734q0-28-18-46l-91-90q-19-19-45-19t-45 19l-408 407-226-226q-19-19-45-19t-45 19l-91 90q-18 18-18 46 0 27 18 45l362 362q19 19 45 19 27 0 46-19l543-543q18-18 18-45zm252 162q0 209-103 385.5t-279.5 279.5-385.5 103-385.5-103-279.5-279.5-103-385.5 103-385.5 279.5-279.5 385.5-103 385.5 103 279.5 279.5 103 385.5z"/></symbol>
<symbol id="za-svg-check-circle-o" viewBox="0 0 1792 1792"><path d="M1299 813l-422 422q-19 19-45 19t-45-19l-294-294q-19-19-19-45t19-45l102-102q19-19 45-19t45 19l147 147 275-275q19-19 45-19t45 19l102 102q19 19 19 45t-19 45zm141 83q0-148-73-273t-198-198-273-73-273 73-198 198-73 273 73 273 198 198 273 73 273-73 198-198 73-273zm224 0q0 209-103 385.5t-279.5 279.5-385.5 103-385.5-103-279.5-279.5-103-385.5 103-385.5 279.5-279.5 385.5-103 385.5 103 279.5 279.5 103 385.5z"/></symbol>
<symbol id="za-svg-check-circle-thin" viewBox="0 0 1792 1792"><path d="M1298,816l-422,422c-12.7,12.7-27.7,19-45,19s-32.3-6.3-45-19L492,944c-12.7-12.7-19-27.7-19-45s6.3-32.3,19-45l102-102c12.7-12.7,27.7-19,45-19s32.3,6.3,45,19l147,147l275-275c12.7-12.7,27.7-19,45-19s32.3,6.3,45,19l102,102c12.7,12.7,19,27.7,19,45S1310.7,803.3,1298,816z M1552,899c0-119.2-29.4-229.1-88.2-329.7c-58.8-100.6-138.5-180.4-239.1-239.1S1014.2,242,895,242s-229.1,29.4-329.7,88.2S384.9,468.6,326.2,569.3S238,779.8,238,899s29.4,229.1,88.2,329.7s138.5,180.4,239.1,239.1c100.6,58.8,210.5,88.2,329.7,88.2s229.1-29.4,329.7-88.2c100.6-58.8,180.4-138.5,239.1-239.1C1522.6,1128.1,1552,1018.2,1552,899zM1663,899c0,139.3-34.3,267.8-103,385.5s-161.8,210.8-279.5,279.5s-246.2,103-385.5,103s-267.8-34.3-385.5-103S298.7,1402.2,230,1284.5S127,1038.3,127,899s34.3-267.8,103-385.5S391.8,302.7,509.5,234S755.7,131,895,131s267.8,34.3,385.5,103s210.8,161.8,279.5,279.5S1663,759.7,1663,899z"/></symbol>
<symbol id="za-svg-check-square" viewBox="0 0 1792 1792"><path d="M813 1299l614-614q19-19 19-45t-19-45l-102-102q-19-19-45-19t-45 19l-467 467-211-211q-19-19-45-19t-45 19l-102 102q-19 19-19 45t19 45l358 358q19 19 45 19t45-19zm851-883v960q0 119-84.5 203.5t-203.5 84.5h-960q-119 0-203.5-84.5t-84.5-203.5v-960q0-119 84.5-203.5t203.5-84.5h960q119 0 203.5 84.5t84.5 203.5z"/></symbol>
<symbol id="za-svg-check-square-o" viewBox="0 0 1792 1792"><path d="M1472 930v318q0 119-84.5 203.5t-203.5 84.5h-832q-119 0-203.5-84.5t-84.5-203.5v-832q0-119 84.5-203.5t203.5-84.5h832q63 0 117 25 15 7 18 23 3 17-9 29l-49 49q-10 10-23 10-3 0-9-2-23-6-45-6h-832q-66 0-113 47t-47 113v832q0 66 47 113t113 47h832q66 0 113-47t47-113v-254q0-13 9-22l64-64q10-10 23-10 6 0 12 3 20 8 20 29zm231-489l-814 814q-24 24-57 24t-57-24l-430-430q-24-24-24-57t24-57l110-110q24-24 57-24t57 24l263 263 647-647q24-24 57-24t57 24l110 110q24 24 24 57t-24 57z"/></symbol>
<symbol id="za-svg-chevron-circle-down" viewBox="0 0 1792 1792"><path d="M941 1299l454-454q19-19 19-45t-19-45l-102-102q-19-19-45-19t-45 19l-307 307-307-307q-19-19-45-19t-45 19l-102 102q-19 19-19 45t19 45l454 454q19 19 45 19t45-19zm723-403q0 209-103 385.5t-279.5 279.5-385.5 103-385.5-103-279.5-279.5-103-385.5 103-385.5 279.5-279.5 385.5-103 385.5 103 279.5 279.5 103 385.5z"/></symbol>
<symbol id="za-svg-chevron-circle-left" viewBox="0 0 1792 1792"><path d="M1037 1395l102-102q19-19 19-45t-19-45l-307-307 307-307q19-19 19-45t-19-45l-102-102q-19-19-45-19t-45 19l-454 454q-19 19-19 45t19 45l454 454q19 19 45 19t45-19zm627-499q0 209-103 385.5t-279.5 279.5-385.5 103-385.5-103-279.5-279.5-103-385.5 103-385.5 279.5-279.5 385.5-103 385.5 103 279.5 279.5 103 385.5z"/></symbol>
<symbol id="za-svg-chevron-circle-right" viewBox="0 0 1792 1792"><path d="M845 1395l454-454q19-19 19-45t-19-45l-454-454q-19-19-45-19t-45 19l-102 102q-19 19-19 45t19 45l307 307-307 307q-19 19-19 45t19 45l102 102q19 19 45 19t45-19zm819-499q0 209-103 385.5t-279.5 279.5-385.5 103-385.5-103-279.5-279.5-103-385.5 103-385.5 279.5-279.5 385.5-103 385.5 103 279.5 279.5 103 385.5z"/></symbol>
<symbol id="za-svg-chevron-circle-up" viewBox="0 0 1792 1792"><path d="M1293 1139l102-102q19-19 19-45t-19-45l-454-454q-19-19-45-19t-45 19l-454 454q-19 19-19 45t19 45l102 102q19 19 45 19t45-19l307-307 307 307q19 19 45 19t45-19zm371-243q0 209-103 385.5t-279.5 279.5-385.5 103-385.5-103-279.5-279.5-103-385.5 103-385.5 279.5-279.5 385.5-103 385.5 103 279.5 279.5 103 385.5z"/></symbol>
<symbol id="za-svg-chevron-down" viewBox="0 0 1792 1792"><path d="M1683 808l-742 741q-19 19-45 19t-45-19l-742-741q-19-19-19-45.5t19-45.5l166-165q19-19 45-19t45 19l531 531 531-531q19-19 45-19t45 19l166 165q19 19 19 45.5t-19 45.5z"/></symbol>
<symbol id="za-svg-chevron-left" viewBox="0 0 1792 1792"><path d="M1427 301l-531 531 531 531q19 19 19 45t-19 45l-166 166q-19 19-45 19t-45-19l-742-742q-19-19-19-45t19-45l742-742q19-19 45-19t45 19l166 166q19 19 19 45t-19 45z"/></symbol>
<symbol id="za-svg-chevron-right" viewBox="0 0 1792 1792"><path d="M1363 877l-742 742q-19 19-45 19t-45-19l-166-166q-19-19-19-45t19-45l531-531-531-531q-19-19-19-45t19-45l166-166q19-19 45-19t45 19l742 742q19 19 19 45t-19 45z"/></symbol>
<symbol id="za-svg-chevron-up" viewBox="0 0 1792 1792"><path d="M1683 1331l-166 165q-19 19-45 19t-45-19l-531-531-531 531q-19 19-45 19t-45-19l-166-165q-19-19-19-45.5t19-45.5l742-741q19-19 45-19t45 19l742 741q19 19 19 45.5t-19 45.5z"/></symbol>
<symbol id="za-svg-circle" viewBox="0 0 1792 1792"><path d="M1664 896q0 209-103 385.5t-279.5 279.5-385.5 103-385.5-103-279.5-279.5-103-385.5 103-385.5 279.5-279.5 385.5-103 385.5 103 279.5 279.5 103 385.5z"/></symbol>
<symbol id="za-svg-circle-o" viewBox="0 0 1792 1792"><path d="M896 352q-148 0-273 73t-198 198-73 273 73 273 198 198 273 73 273-73 198-198 73-273-73-273-198-198-273-73zm768 544q0 209-103 385.5t-279.5 279.5-385.5 103-385.5-103-279.5-279.5-103-385.5 103-385.5 279.5-279.5 385.5-103 385.5 103 279.5 279.5 103 385.5z"/></symbol>
<symbol id="za-svg-circle-o-notch" viewBox="0 0 1792 1792"><path d="M1792 896q0 182-71 348t-191 286-286 191-348 71-348-71-286-191-191-286-71-348q0-222 101-414.5t276.5-317 390.5-155.5v260q-221 45-366.5 221t-145.5 406q0 130 51 248.5t136.5 204 204 136.5 248.5 51 248.5-51 204-136.5 136.5-204 51-248.5q0-230-145.5-406t-366.5-221v-260q215 31 390.5 155.5t276.5 317 101 414.5z"/></symbol>
<symbol id="za-svg-circle-thin" viewBox="0 0 1792 1792"><path d="M896 256q-130 0-248.5 51t-204 136.5-136.5 204-51 248.5 51 248.5 136.5 204 204 136.5 248.5 51 248.5-51 204-136.5 136.5-204 51-248.5-51-248.5-136.5-204-204-136.5-248.5-51zm768 640q0 209-103 385.5t-279.5 279.5-385.5 103-385.5-103-279.5-279.5-103-385.5 103-385.5 279.5-279.5 385.5-103 385.5 103 279.5 279.5 103 385.5z"/></symbol>
<symbol id="za-svg-cog" viewBox="0 0 1792 1792"><path d="M1152 896q0-106-75-181t-181-75-181 75-75 181 75 181 181 75 181-75 75-181zm512-109v222q0 12-8 23t-20 13l-185 28q-19 54-39 91 35 50 107 138 10 12 10 25t-9 23q-27 37-99 108t-94 71q-12 0-26-9l-138-108q-44 23-91 38-16 136-29 186-7 28-36 28h-222q-14 0-24.5-8.5t-11.5-21.5l-28-184q-49-16-90-37l-141 107q-10 9-25 9-14 0-25-11-126-114-165-168-7-10-7-23 0-12 8-23 15-21 51-66.5t54-70.5q-27-50-41-99l-183-27q-13-2-21-12.5t-8-23.5v-222q0-12 8-23t19-13l186-28q14-46 39-92-40-57-107-138-10-12-10-24 0-10 9-23 26-36 98.5-107.5t94.5-71.5q13 0 26 10l138 107q44-23 91-38 16-136 29-186 7-28 36-28h222q14 0 24.5 8.5t11.5 21.5l28 184q49 16 90 37l142-107q9-9 24-9 13 0 25 10 129 119 165 170 7 8 7 22 0 12-8 23-15 21-51 66.5t-54 70.5q26 50 41 98l183 28q13 2 21 12.5t8 23.5z"/></symbol>
<symbol id="za-svg-cogs" viewBox="0 0 1792 1792"><path d="M832 896q0-106-75-181t-181-75-181 75-75 181 75 181 181 75 181-75 75-181zm768 512q0-52-38-90t-90-38-90 38-38 90q0 53 37.5 90.5t90.5 37.5 90.5-37.5 37.5-90.5zm0-1024q0-52-38-90t-90-38-90 38-38 90q0 53 37.5 90.5t90.5 37.5 90.5-37.5 37.5-90.5zm-384 421v185q0 10-7 19.5t-16 10.5l-155 24q-11 35-32 76 34 48 90 115 7 10 7 20 0 12-7 19-23 30-82.5 89.5t-78.5 59.5q-11 0-21-7l-115-90q-37 19-77 31-11 108-23 155-7 24-30 24h-186q-11 0-20-7.5t-10-17.5l-23-153q-34-10-75-31l-118 89q-7 7-20 7-11 0-21-8-144-133-144-160 0-9 7-19 10-14 41-53t47-61q-23-44-35-82l-152-24q-10-1-17-9.5t-7-19.5v-185q0-10 7-19.5t16-10.5l155-24q11-35 32-76-34-48-90-115-7-11-7-20 0-12 7-20 22-30 82-89t79-59q11 0 21 7l115 90q34-18 77-32 11-108 23-154 7-24 30-24h186q11 0 20 7.5t10 17.5l23 153q34 10 75 31l118-89q8-7 20-7 11 0 21 8 144 133 144 160 0 9-7 19-12 16-42 54t-45 60q23 48 34 82l152 23q10 2 17 10.5t7 19.5zm640 533v140q0 16-149 31-12 27-30 52 51 113 51 138 0 4-4 7-122 71-124 71-8 0-46-47t-52-68q-20 2-30 2t-30-2q-14 21-52 68t-46 47q-2 0-124-71-4-3-4-7 0-25 51-138-18-25-30-52-149-15-149-31v-140q0-16 149-31 13-29 30-52-51-113-51-138 0-4 4-7 4-2 35-20t59-34 30-16q8 0 46 46.5t52 67.5q20-2 30-2t30 2q51-71 92-112l6-2q4 0 124 70 4 3 4 7 0 25-51 138 17 23 30 52 149 15 149 31zm0-1024v140q0 16-149 31-12 27-30 52 51 113 51 138 0 4-4 7-122 71-124 71-8 0-46-47t-52-68q-20 2-30 2t-30-2q-14 21-52 68t-46 47q-2 0-124-71-4-3-4-7 0-25 51-138-18-25-30-52-149-15-149-31v-140q0-16 149-31 13-29 30-52-51-113-51-138 0-4 4-7 4-2 35-20t59-34 30-16q8 0 46 46.5t52 67.5q20-2 30-2t30 2q51-71 92-112l6-2q4 0 124 70 4 3 4 7 0 25-51 138 17 23 30 52 149 15 149 31z"/></symbol>
<symbol id="za-svg-comment" viewBox="0 0 1792 1792"><path d="M1792 896q0 174-120 321.5t-326 233-450 85.5q-70 0-145-8-198 175-460 242-49 14-114 22-17 2-30.5-9t-17.5-29v-1q-3-4-.5-12t2-10 4.5-9.5l6-9 7-8.5 8-9q7-8 31-34.5t34.5-38 31-39.5 32.5-51 27-59 26-76q-157-89-247.5-220t-90.5-281q0-130 71-248.5t191-204.5 286-136.5 348-50.5q244 0 450 85.5t326 233 120 321.5z"/></symbol>
<symbol id="za-svg-comment-o" viewBox="0 0 1792 1792"><path d="M896 384q-204 0-381.5 69.5t-282 187.5-104.5 255q0 112 71.5 213.5t201.5 175.5l87 50-27 96q-24 91-70 172 152-63 275-171l43-38 57 6q69 8 130 8 204 0 381.5-69.5t282-187.5 104.5-255-104.5-255-282-187.5-381.5-69.5zm896 512q0 174-120 321.5t-326 233-450 85.5q-70 0-145-8-198 175-460 242-49 14-114 22h-5q-15 0-27-10.5t-16-27.5v-1q-3-4-.5-12t2-10 4.5-9.5l6-9 7-8.5 8-9q7-8 31-34.5t34.5-38 31-39.5 32.5-51 27-59 26-76q-157-89-247.5-220t-90.5-281q0-174 120-321.5t326-233 450-85.5 450 85.5 326 233 120 321.5z"/></symbol>
<symbol id="za-svg-credit-card" viewBox="0 0 1792 1792"><path d="M1696 128q66 0 113 47t47 113v1216q0 66-47 113t-113 47h-1600q-66 0-113-47t-47-113v-1216q0-66 47-113t113-47h1600zm-1600 128q-13 0-22.5 9.5t-9.5 22.5v224h1664v-224q0-13-9.5-22.5t-22.5-9.5h-1600zm1600 1280q13 0 22.5-9.5t9.5-22.5v-608h-1664v608q0 13 9.5 22.5t22.5 9.5h1600zm-1504-128v-128h256v128h-256zm384 0v-128h384v128h-384z"/></symbol>
<symbol id="za-svg-dollar" viewBox="0 0 1792 1792"><path d="M1362 1185q0 153-99.5 263.5t-258.5 136.5v175q0 14-9 23t-23 9h-135q-13 0-22.5-9.5t-9.5-22.5v-175q-66-9-127.5-31t-101.5-44.5-74-48-46.5-37.5-17.5-18q-17-21-2-41l103-135q7-10 23-12 15-2 24 9l2 2q113 99 243 125 37 8 74 8 81 0 142.5-43t61.5-122q0-28-15-53t-33.5-42-58.5-37.5-66-32-80-32.5q-39-16-61.5-25t-61.5-26.5-62.5-31-56.5-35.5-53.5-42.5-43.5-49-35.5-58-21-66.5-8.5-78q0-138 98-242t255-134v-180q0-13 9.5-22.5t22.5-9.5h135q14 0 23 9t9 23v176q57 6 110.5 23t87 33.5 63.5 37.5 39 29 15 14q17 18 5 38l-81 146q-8 15-23 16-14 3-27-7-3-3-14.5-12t-39-26.5-58.5-32-74.5-26-85.5-11.5q-95 0-155 43t-60 111q0 26 8.5 48t29.5 41.5 39.5 33 56 31 60.5 27 70 27.5q53 20 81 31.5t76 35 75.5 42.5 62 50 53 63.5 31.5 76.5 13 94z"/></symbol>
<symbol id="za-svg-download" viewBox="0 0 1792 1792"><path d="M1344 1344q0-26-19-45t-45-19-45 19-19 45 19 45 45 19 45-19 19-45zm256 0q0-26-19-45t-45-19-45 19-19 45 19 45 45 19 45-19 19-45zm128-224v320q0 40-28 68t-68 28h-1472q-40 0-68-28t-28-68v-320q0-40 28-68t68-28h465l135 136q58 56 136 56t136-56l136-136h464q40 0 68 28t28 68zm-325-569q17 41-14 70l-448 448q-18 19-45 19t-45-19l-448-448q-31-29-14-70 17-39 59-39h256v-448q0-26 19-45t45-19h256q26 0 45 19t19 45v448h256q42 0 59 39z"/></symbol>
<symbol id="za-svg-envelope" viewBox="0 0 1792 1792"><path d="M1792 710v794q0 66-47 113t-113 47h-1472q-66 0-113-47t-47-113v-794q44 49 101 87 362 246 497 345 57 42 92.5 65.5t94.5 48 110 24.5h2q51 0 110-24.5t94.5-48 92.5-65.5q170-123 498-345 57-39 100-87zm0-294q0 79-49 151t-122 123q-376 261-468 325-10 7-42.5 30.5t-54 38-52 32.5-57.5 27-50 9h-2q-23 0-50-9t-57.5-27-52-32.5-54-38-42.5-30.5q-91-64-262-182.5t-205-142.5q-62-42-117-115.5t-55-136.5q0-78 41.5-130t118.5-52h1472q65 0 112.5 47t47.5 113z"/></symbol>
<symbol id="za-svg-envelope-o" viewBox="0 0 1792 1792"><path d="M1664 1504v-768q-32 36-69 66-268 206-426 338-51 43-83 67t-86.5 48.5-102.5 24.5h-2q-48 0-102.5-24.5t-86.5-48.5-83-67q-158-132-426-338-37-30-69-66v768q0 13 9.5 22.5t22.5 9.5h1472q13 0 22.5-9.5t9.5-22.5zm0-1051v-24.5l-.5-13-3-12.5-5.5-9-9-7.5-14-2.5h-1472q-13 0-22.5 9.5t-9.5 22.5q0 168 147 284 193 152 401 317 6 5 35 29.5t46 37.5 44.5 31.5 50.5 27.5 43 9h2q20 0 43-9t50.5-27.5 44.5-31.5 46-37.5 35-29.5q208-165 401-317 54-43 100.5-115.5t46.5-131.5zm128-37v1088q0 66-47 113t-113 47h-1472q-66 0-113-47t-47-113v-1088q0-66 47-113t113-47h1472q66 0 113 47t47 113z"/></symbol>
<symbol id="za-svg-envelope-square" viewBox="0 0 1792 1792"><path d="M1376 128q119 0 203.5 84.5t84.5 203.5v960q0 119-84.5 203.5t-203.5 84.5h-960q-119 0-203.5-84.5t-84.5-203.5v-960q0-119 84.5-203.5t203.5-84.5h960zm32 1056v-436q-31 35-64 55-34 22-132.5 85t-151.5 99q-98 69-164 69t-164-69q-46-32-141.5-92.5t-142.5-92.5q-12-8-33-27t-31-27v436q0 40 28 68t68 28h832q40 0 68-28t28-68zm0-573q0-41-27.5-70t-68.5-29h-832q-40 0-68 28t-28 68q0 37 30.5 76.5t67.5 64.5q47 32 137.5 89t129.5 83q3 2 17 11.5t21 14 21 13 23.5 13 21.5 9.5 22.5 7.5 20.5 2.5 20.5-2.5 22.5-7.5 21.5-9.5 23.5-13 21-13 21-14 17-11.5l267-174q35-23 66.5-62.5t31.5-73.5z"/></symbol>
<symbol id="za-svg-exchange" viewBox="0 0 1792 1792"><path d="M1792 1184v192q0 13-9.5 22.5t-22.5 9.5h-1376v192q0 13-9.5 22.5t-22.5 9.5q-12 0-24-10l-319-320q-9-9-9-22 0-14 9-23l320-320q9-9 23-9 13 0 22.5 9.5t9.5 22.5v192h1376q13 0 22.5 9.5t9.5 22.5zm0-544q0 14-9 23l-320 320q-9 9-23 9-13 0-22.5-9.5t-9.5-22.5v-192h-1376q-13 0-22.5-9.5t-9.5-22.5v-192q0-13 9.5-22.5t22.5-9.5h1376v-192q0-14 9-23t23-9q12 0 24 10l319 319q9 9 9 23z"/></symbol>
<symbol id="za-svg-exclamation-circle" viewBox="0 0 1792 1792"><path d="M896 128q209 0 385.5 103t279.5 279.5 103 385.5-103 385.5-279.5 279.5-385.5 103-385.5-103-279.5-279.5-103-385.5 103-385.5 279.5-279.5 385.5-103zm128 1247v-190q0-14-9-23.5t-22-9.5h-192q-13 0-23 10t-10 23v190q0 13 10 23t23 10h192q13 0 22-9.5t9-23.5zm-2-344l18-621q0-12-10-18-10-8-24-8h-220q-14 0-24 8-10 6-10 18l17 621q0 10 10 17.5t24 7.5h185q14 0 23.5-7.5t10.5-17.5z"/></symbol>
<symbol id="za-svg-exclamation-triangle" viewBox="0 0 1792 1792"><path d="M1024 1375v-190q0-14-9.5-23.5t-22.5-9.5h-192q-13 0-22.5 9.5t-9.5 23.5v190q0 14 9.5 23.5t22.5 9.5h192q13 0 22.5-9.5t9.5-23.5zm-2-374l18-459q0-12-10-19-13-11-24-11h-220q-11 0-24 11-10 7-10 21l17 457q0 10 10 16.5t24 6.5h185q14 0 23.5-6.5t10.5-16.5zm-14-934l768 1408q35 63-2 126-17 29-46.5 46t-63.5 17h-1536q-34 0-63.5-17t-46.5-46q-37-63-2-126l768-1408q17-31 47-49t65-18 65 18 47 49z"/></symbol>
<symbol id="za-svg-facebook-square" viewBox="0 0 1792 1792"><path d="M1376 128q119 0 203.5 84.5t84.5 203.5v960q0 119-84.5 203.5t-203.5 84.5h-188v-595h199l30-232h-229v-148q0-56 23.5-84t91.5-28l122-1v-207q-63-9-178-9-136 0-217.5 80t-81.5 226v171h-200v232h200v595h-532q-119 0-203.5-84.5t-84.5-203.5v-960q0-119 84.5-203.5t203.5-84.5h960z"/></symbol>
<symbol id="za-svg-file-pdf-o" viewBox="0 0 1792 1792"><path d="M1596 380q28 28 48 76t20 88v1152q0 40-28 68t-68 28h-1344q-40 0-68-28t-28-68v-1600q0-40 28-68t68-28h896q40 0 88 20t76 48zm-444-244v376h376q-10-29-22-41l-313-313q-12-12-41-22zm384 1528v-1024h-416q-40 0-68-28t-28-68v-416h-768v1536h1280zm-514-593q33 26 84 56 59-7 117-7 147 0 177 49 16 22 2 52 0 1-1 2l-2 2v1q-6 38-71 38-48 0-115-20t-130-53q-221 24-392 83-153 262-242 262-15 0-28-7l-24-12q-1-1-6-5-10-10-6-36 9-40 56-91.5t132-96.5q14-9 23 6 2 2 2 4 52-85 107-197 68-136 104-262-24-82-30.5-159.5t6.5-127.5q11-40 42-40h22q23 0 35 15 18 21 9 68-2 6-4 8 1 3 1 8v30q-2 123-14 192 55 164 146 238zm-576 411q52-24 137-158-51 40-87.5 84t-49.5 74zm398-920q-15 42-2 132 1-7 7-44 0-3 7-43 1-4 4-8-1-1-1-2t-.5-1.5-.5-1.5q-1-22-13-36 0 1-1 2v2zm-124 661q135-54 284-81-2-1-13-9.5t-16-13.5q-76-67-127-176-27 86-83 197-30 56-45 83zm646-16q-24-24-140-24 76 28 124 28 14 0 18-1 0-1-2-3z"/></symbol>
<symbol id="za-svg-file-text" viewBox="0 0 1792 1792"><path d="M1596 476q14 14 28 36h-472v-472q22 14 36 28zm-476 164h544v1056q0 40-28 68t-68 28h-1344q-40 0-68-28t-28-68v-1600q0-40 28-68t68-28h800v544q0 40 28 68t68 28zm160 736v-64q0-14-9-23t-23-9h-704q-14 0-23 9t-9 23v64q0 14 9 23t23 9h704q14 0 23-9t9-23zm0-256v-64q0-14-9-23t-23-9h-704q-14 0-23 9t-9 23v64q0 14 9 23t23 9h704q14 0 23-9t9-23zm0-256v-64q0-14-9-23t-23-9h-704q-14 0-23 9t-9 23v64q0 14 9 23t23 9h704q14 0 23-9t9-23z"/></symbol>
<symbol id="za-svg-file-text-o" viewBox="0 0 1792 1792"><path d="M1596 380q28 28 48 76t20 88v1152q0 40-28 68t-68 28h-1344q-40 0-68-28t-28-68v-1600q0-40 28-68t68-28h896q40 0 88 20t76 48zm-444-244v376h376q-10-29-22-41l-313-313q-12-12-41-22zm384 1528v-1024h-416q-40 0-68-28t-28-68v-416h-768v1536h1280zm-1024-864q0-14 9-23t23-9h704q14 0 23 9t9 23v64q0 14-9 23t-23 9h-704q-14 0-23-9t-9-23v-64zm736 224q14 0 23 9t9 23v64q0 14-9 23t-23 9h-704q-14 0-23-9t-9-23v-64q0-14 9-23t23-9h704zm0 256q14 0 23 9t9 23v64q0 14-9 23t-23 9h-704q-14 0-23-9t-9-23v-64q0-14 9-23t23-9h704z"/></symbol>
<symbol id="za-svg-font" viewBox="0 0 1792 1792"><path d="M789 559l-170 450q33 0 136.5 2t160.5 2q19 0 57-2-87-253-184-452zm-725 1105l2-79q23-7 56-12.5t57-10.5 49.5-14.5 44.5-29 31-50.5l237-616 280-724h128q8 14 11 21l205 480q33 78 106 257.5t114 274.5q15 34 58 144.5t72 168.5q20 45 35 57 19 15 88 29.5t84 20.5q6 38 6 57 0 4-.5 13t-.5 13q-63 0-190-8t-191-8q-76 0-215 7t-178 8q0-43 4-78l131-28q1 0 12.5-2.5t15.5-3.5 14.5-4.5 15-6.5 11-8 9-11 2.5-14q0-16-31-96.5t-72-177.5-42-100l-450-2q-26 58-76.5 195.5t-50.5 162.5q0 22 14 37.5t43.5 24.5 48.5 13.5 57 8.5 41 4q1 19 1 58 0 9-2 27-58 0-174.5-10t-174.5-10q-8 0-26.5 4t-21.5 4q-80 14-188 14z"/></symbol>
<symbol id="za-svg-gift" viewBox="0 0 1792 1792"><path d="M1056 1356v-716h-320v716q0 25 18 38.5t46 13.5h192q28 0 46-13.5t18-38.5zm-456-844h195l-126-161q-26-31-69-31-40 0-68 28t-28 68 28 68 68 28zm688-96q0-40-28-68t-68-28q-43 0-69 31l-125 161h194q40 0 68-28t28-68zm376 256v320q0 14-9 23t-23 9h-96v416q0 40-28 68t-68 28h-1088q-40 0-68-28t-28-68v-416h-96q-14 0-23-9t-9-23v-320q0-14 9-23t23-9h440q-93 0-158.5-65.5t-65.5-158.5 65.5-158.5 158.5-65.5q107 0 168 77l128 165 128-165q61-77 168-77 93 0 158.5 65.5t65.5 158.5-65.5 158.5-158.5 65.5h440q14 0 23 9t9 23z"/></symbol>
<symbol id="za-svg-globe" viewBox="0 0 1792 1792"><path d="M896 128q209 0 385.5 103t279.5 279.5 103 385.5-103 385.5-279.5 279.5-385.5 103-385.5-103-279.5-279.5-103-385.5 103-385.5 279.5-279.5 385.5-103zm274 521q-2 1-9.5 9.5t-13.5 9.5q2 0 4.5-5t5-11 3.5-7q6-7 22-15 14-6 52-12 34-8 51 11-2-2 9.5-13t14.5-12q3-2 15-4.5t15-7.5l2-22q-12 1-17.5-7t-6.5-21q0 2-6 8 0-7-4.5-8t-11.5 1-9 1q-10-3-15-7.5t-8-16.5-4-15q-2-5-9.5-10.5t-9.5-10.5q-1-2-2.5-5.5t-3-6.5-4-5.5-5.5-2.5-7 5-7.5 10-4.5 5q-3-2-6-1.5t-4.5 1-4.5 3-5 3.5q-3 2-8.5 3t-8.5 2q15-5-1-11-10-4-16-3 9-4 7.5-12t-8.5-14h5q-1-4-8.5-8.5t-17.5-8.5-13-6q-8-5-34-9.5t-33-.5q-5 6-4.5 10.5t4 14 3.5 12.5q1 6-5.5 13t-6.5 12q0 7 14 15.5t10 21.5q-3 8-16 16t-16 12q-5 8-1.5 18.5t10.5 16.5q2 2 1.5 4t-3.5 4.5-5.5 4-6.5 3.5l-3 2q-11 5-20.5-6t-13.5-26q-7-25-16-30-23-8-29 1-5-13-41-26-25-9-58-4 6-1 0-15-7-15-19-12 3-6 4-17.5t1-13.5q3-13 12-23 1-1 7-8.5t9.5-13.5.5-6q35 4 50-11 5-5 11.5-17t10.5-17q9-6 14-5.5t14.5 5.5 14.5 5q14 1 15.5-11t-7.5-20q12 1 3-17-5-7-8-9-12-4-27 5-8 4 2 8-1-1-9.5 10.5t-16.5 17.5-16-5q-1-1-5.5-13.5t-9.5-13.5q-8 0-16 15 3-8-11-15t-24-8q19-12-8-27-7-4-20.5-5t-19.5 4q-5 7-5.5 11.5t5 8 10.5 5.5 11.5 4 8.5 3q14 10 8 14-2 1-8.5 3.5t-11.5 4.5-6 4q-3 4 0 14t-2 14q-5-5-9-17.5t-7-16.5q7 9-25 6l-10-1q-4 0-16 2t-20.5 1-13.5-8q-4-8 0-20 1-4 4-2-4-3-11-9.5t-10-8.5q-46 15-94 41 6 1 12-1 5-2 13-6.5t10-5.5q34-14 42-7l5-5q14 16 20 25-7-4-30-1-20 6-22 12 7 12 5 18-4-3-11.5-10t-14.5-11-15-5q-16 0-22 1-146 80-235 222 7 7 12 8 4 1 5 9t2.5 11 11.5-3q9 8 3 19 1-1 44 27 19 17 21 21 3 11-10 18-1-2-9-9t-9-4q-3 5 .5 18.5t10.5 12.5q-7 0-9.5 16t-2.5 35.5-1 23.5l2 1q-3 12 5.5 34.5t21.5 19.5q-13 3 20 43 6 8 8 9 3 2 12 7.5t15 10 10 10.5q4 5 10 22.5t14 23.5q-2 6 9.5 20t10.5 23q-1 0-2.5 1t-2.5 1q3 7 15.5 14t15.5 13q1 3 2 10t3 11 8 2q2-20-24-62-15-25-17-29-3-5-5.5-15.5t-4.5-14.5q2 0 6 1.5t8.5 3.5 7.5 4 2 3q-3 7 2 17.5t12 18.5 17 19 12 13q6 6 14 19.5t0 13.5q9 0 20 10t17 20q5 8 8 26t5 24q2 7 8.5 13.5t12.5 9.5l16 8 13 7q5 2 18.5 10.5t21.5 11.5q10 4 16 4t14.5-2.5 13.5-3.5q15-2 29 15t21 21q36 19 55 11-2 1 .5 7.5t8 15.5 9 14.5 5.5 8.5q5 6 18 15t18 15q6-4 7-9-3 8 7 20t18 10q14-3 14-32-31 15-49-18 0-1-2.5-5.5t-4-8.5-2.5-8.5 0-7.5 5-3q9 0 10-3.5t-2-12.5-4-13q-1-8-11-20t-12-15q-5 9-16 8t-16-9q0 1-1.5 5.5t-1.5 6.5q-13 0-15-1 1-3 2.5-17.5t3.5-22.5q1-4 5.5-12t7.5-14.5 4-12.5-4.5-9.5-17.5-2.5q-19 1-26 20-1 3-3 10.5t-5 11.5-9 7q-7 3-24 2t-24-5q-13-8-22.5-29t-9.5-37q0-10 2.5-26.5t3-25-5.5-24.5q3-2 9-9.5t10-10.5q2-1 4.5-1.5t4.5 0 4-1.5 3-6q-1-1-4-3-3-3-4-3 7 3 28.5-1.5t27.5 1.5q15 11 22-2 0-1-2.5-9.5t-.5-13.5q5 27 29 9 3 3 15.5 5t17.5 5q3 2 7 5.5t5.5 4.5 5-.5 8.5-6.5q10 14 12 24 11 40 19 44 7 3 11 2t4.5-9.5 0-14-1.5-12.5l-1-8v-18l-1-8q-15-3-18.5-12t1.5-18.5 15-18.5q1-1 8-3.5t15.5-6.5 12.5-8q21-19 15-35 7 0 11-9-1 0-5-3t-7.5-5-4.5-2q9-5 2-16 5-3 7.5-11t7.5-10q9 12 21 2 7-8 1-16 5-7 20.5-10.5t18.5-9.5q7 2 8-2t1-12 3-12q4-5 15-9t13-5l17-11q3-4 0-4 18 2 31-11 10-11-6-20 3-6-3-9.5t-15-5.5q3-1 11.5-.5t10.5-1.5q15-10-7-16-17-5-43 12zm-163 877q206-36 351-189-3-3-12.5-4.5t-12.5-3.5q-18-7-24-8 1-7-2.5-13t-8-9-12.5-8-11-7q-2-2-7-6t-7-5.5-7.5-4.5-8.5-2-10 1l-3 1q-3 1-5.5 2.5t-5.5 3-4 3 0 2.5q-21-17-36-22-5-1-11-5.5t-10.5-7-10-1.5-11.5 7q-5 5-6 15t-2 13q-7-5 0-17.5t2-18.5q-3-6-10.5-4.5t-12 4.5-11.5 8.5-9 6.5-8.5 5.5-8.5 7.5q-3 4-6 12t-5 11q-2-4-11.5-6.5t-9.5-5.5q2 10 4 35t5 38q7 31-12 48-27 25-29 40-4 22 12 26 0 7-8 20.5t-7 21.5q0 6 2 16z"/></symbol>
<symbol id="za-svg-google-plus-square" viewBox="0 0 1792 1792"><path d="M957 1218q0 76-58.5 112.5t-139.5 36.5q-41 0-80.5-9.5t-75.5-28.5-58-53-22-78q0-46 25-80t65.5-51.5 82-25 84.5-7.5q20 0 31 2 2 1 23 16.5t26 19 23 18 24.5 22 19 22.5 17 26 9 26.5 4.5 31.5zm-74-545q0 60-33 99.5t-92 39.5q-53 0-93-42.5t-57.5-96.5-17.5-106q0-61 32-104t92-43q53 0 93.5 45t58 101 17.5 107zm106-257l88-64h-265q-85 0-161 32t-127.5 98-51.5 153q0 93 64.5 154.5t158.5 61.5q22 0 43-3-13 29-13 54 0 44 40 94-175 12-257 63-47 29-75.5 73t-28.5 95q0 43 18.5 77.5t48.5 56.5 69 37 77.5 21 76.5 6q60 0 120.5-15.5t113.5-46 86-82.5 33-117q0-49-20-89.5t-49-66.5-58-47.5-49-44-20-44.5 15.5-42.5 37.5-39.5 44-42 37.5-59.5 15.5-82.5q0-60-22.5-99.5t-72.5-90.5h83zm291 448h128v-64h-128v-128h-64v128h-128v64h128v160h64v-160zm384-448v960q0 119-84.5 203.5t-203.5 84.5h-960q-119 0-203.5-84.5t-84.5-203.5v-960q0-119 84.5-203.5t203.5-84.5h960q119 0 203.5 84.5t84.5 203.5z"/></symbol>
<symbol id="za-svg-heart" viewBox="0 0 1792 1792"><path d="M896 1664q-26 0-44-18l-624-602q-10-8-27.5-26t-55.5-65.5-68-97.5-53.5-121-23.5-138q0-220 127-344t351-124q62 0 126.5 21.5t120 58 95.5 68.5 76 68q36-36 76-68t95.5-68.5 120-58 126.5-21.5q224 0 351 124t127 344q0 221-229 450l-623 600q-18 18-44 18z"/></symbol>
<symbol id="za-svg-history" viewBox="0 0 1792 1792"><path d="M1664 896q0 156-61 298t-164 245-245 164-298 61q-172 0-327-72.5t-264-204.5q-7-10-6.5-22.5t8.5-20.5l137-138q10-9 25-9 16 2 23 12 73 95 179 147t225 52q104 0 198.5-40.5t163.5-109.5 109.5-163.5 40.5-198.5-40.5-198.5-109.5-163.5-163.5-109.5-198.5-40.5q-98 0-188 35.5t-160 101.5l137 138q31 30 14 69-17 40-59 40h-448q-26 0-45-19t-19-45v-448q0-42 40-59 39-17 69 14l130 129q107-101 244.5-156.5t284.5-55.5q156 0 298 61t245 164 164 245 61 298zm-640-288v448q0 14-9 23t-23 9h-320q-14 0-23-9t-9-23v-64q0-14 9-23t23-9h224v-352q0-14 9-23t23-9h64q14 0 23 9t9 23z"/></symbol>
<symbol id="za-svg-home" viewBox="0 0 1792 1792"><path d="M1472 992v480q0 26-19 45t-45 19h-384v-384h-256v384h-384q-26 0-45-19t-19-45v-480q0-1 .5-3t.5-3l575-474 575 474q1 2 1 6zm223-69l-62 74q-8 9-21 11h-3q-13 0-21-7l-692-577-692 577q-12 8-24 7-13-2-21-11l-62-74q-8-10-7-23.5t11-21.5l719-599q32-26 76-26t76 26l244 204v-195q0-14 9-23t23-9h192q14 0 23 9t9 23v408l219 182q10 8 11 21.5t-7 23.5z"/></symbol>
<symbol id="za-svg-inbox" viewBox="0 0 1792 1792"><path d="M1151 960h316q-1-3-2.5-8t-2.5-8l-212-496h-708l-212 496q-1 2-2.5 8t-2.5 8h316l95 192h320zm513 30v482q0 26-19 45t-45 19h-1408q-26 0-45-19t-19-45v-482q0-62 25-123l238-552q10-25 36.5-42t52.5-17h832q26 0 52.5 17t36.5 42l238 552q25 61 25 123z"/></symbol>
<symbol id="za-svg-info" viewBox="0 0 1792 1792"><path d="M1216 1344v128q0 26-19 45t-45 19h-512q-26 0-45-19t-19-45v-128q0-26 19-45t45-19h64v-384h-64q-26 0-45-19t-19-45v-128q0-26 19-45t45-19h384q26 0 45 19t19 45v576h64q26 0 45 19t19 45zm-128-1152v192q0 26-19 45t-45 19h-256q-26 0-45-19t-19-45v-192q0-26 19-45t45-19h256q26 0 45 19t19 45z"/></symbol>
<symbol id="za-svg-info-circle" viewBox="0 0 1792 1792"><path d="M1152 1376v-160q0-14-9-23t-23-9h-96v-512q0-14-9-23t-23-9h-320q-14 0-23 9t-9 23v160q0 14 9 23t23 9h96v320h-96q-14 0-23 9t-9 23v160q0 14 9 23t23 9h448q14 0 23-9t9-23zm-128-896v-160q0-14-9-23t-23-9h-192q-14 0-23 9t-9 23v160q0 14 9 23t23 9h192q14 0 23-9t9-23zm640 416q0 209-103 385.5t-279.5 279.5-385.5 103-385.5-103-279.5-279.5-103-385.5 103-385.5 279.5-279.5 385.5-103 385.5 103 279.5 279.5 103 385.5z"/></symbol>
<symbol id="za-svg-key" viewBox="0 0 1792 1792"><path d="M832 512q0-80-56-136t-136-56-136 56-56 136q0 42 19 83-41-19-83-19-80 0-136 56t-56 136 56 136 136 56 136-56 56-136q0-42-19-83 41 19 83 19 80 0 136-56t56-136zm851 704q0 17-49 66t-66 49q-9 0-28.5-16t-36.5-33-38.5-40-24.5-26l-96 96 220 220q28 28 28 68 0 42-39 81t-81 39q-40 0-68-28l-671-671q-176 131-365 131-163 0-265.5-102.5t-102.5-265.5q0-160 95-313t248-248 313-95q163 0 265.5 102.5t102.5 265.5q0 189-131 365l355 355 96-96q-3-3-26-24.5t-40-38.5-33-36.5-16-28.5q0-17 49-66t66-49q13 0 23 10 6 6 46 44.5t82 79.5 86.5 86 73 78 28.5 41z"/></symbol>
<symbol id="za-svg-leaf" viewBox="0 0 1792 1792"><path d="M1280 704q0-26-19-45t-45-19q-172 0-318 49.5t-259.5 134-235.5 219.5q-19 21-19 45 0 26 19 45t45 19q24 0 45-19 27-24 74-71t67-66q137-124 268.5-176t313.5-52q26 0 45-19t19-45zm512-198q0 95-20 193-46 224-184.5 383t-357.5 268q-214 108-438 108-148 0-286-47-15-5-88-42t-96-37q-16 0-39.5 32t-45 70-52.5 70-60 32q-30 0-51-11t-31-24-27-42q-2-4-6-11t-5.5-10-3-9.5-1.5-13.5q0-35 31-73.5t68-65.5 68-56 31-48q0-4-14-38t-16-44q-9-51-9-104 0-115 43.5-220t119-184.5 170.5-139 204-95.5q55-18 145-25.5t179.5-9 178.5-6 163.5-24 113.5-56.5l29.5-29.5 29.5-28 27-20 36.5-16 43.5-4.5q39 0 70.5 46t47.5 112 24 124 8 96z"/></symbol>
<symbol id="za-svg-minus" viewBox="0 0 1792 1792"><path d="M1600 736v192q0 40-28 68t-68 28h-1216q-40 0-68-28t-28-68v-192q0-40 28-68t68-28h1216q40 0 68 28t28 68z"/></symbol>
<symbol id="za-svg-minus-circle" viewBox="0 0 1792 1792"><path d="M1344 960v-128q0-26-19-45t-45-19h-768q-26 0-45 19t-19 45v128q0 26 19 45t45 19h768q26 0 45-19t19-45zm320-64q0 209-103 385.5t-279.5 279.5-385.5 103-385.5-103-279.5-279.5-103-385.5 103-385.5 279.5-279.5 385.5-103 385.5 103 279.5 279.5 103 385.5z"/></symbol>
<symbol id="za-svg-minus-square" viewBox="0 0 1792 1792"><path d="M1408 960v-128q0-26-19-45t-45-19h-896q-26 0-45 19t-19 45v128q0 26 19 45t45 19h896q26 0 45-19t19-45zm256-544v960q0 119-84.5 203.5t-203.5 84.5h-960q-119 0-203.5-84.5t-84.5-203.5v-960q0-119 84.5-203.5t203.5-84.5h960q119 0 203.5 84.5t84.5 203.5z"/></symbol>
<symbol id="za-svg-minus-square-o" viewBox="0 0 1792 1792"><path d="M1344 800v64q0 14-9 23t-23 9h-832q-14 0-23-9t-9-23v-64q0-14 9-23t23-9h832q14 0 23 9t9 23zm128 448v-832q0-66-47-113t-113-47h-832q-66 0-113 47t-47 113v832q0 66 47 113t113 47h832q66 0 113-47t47-113zm128-832v832q0 119-84.5 203.5t-203.5 84.5h-832q-119 0-203.5-84.5t-84.5-203.5v-832q0-119 84.5-203.5t203.5-84.5h832q119 0 203.5 84.5t84.5 203.5z"/></symbol>
<symbol id="za-svg-mobile" viewBox="0 0 1792 1792"><path d="M976 1408q0-33-23.5-56.5t-56.5-23.5-56.5 23.5-23.5 56.5 23.5 56.5 56.5 23.5 56.5-23.5 23.5-56.5zm208-160v-704q0-13-9.5-22.5t-22.5-9.5h-512q-13 0-22.5 9.5t-9.5 22.5v704q0 13 9.5 22.5t22.5 9.5h512q13 0 22.5-9.5t9.5-22.5zm-192-848q0-16-16-16h-160q-16 0-16 16t16 16h160q16 0 16-16zm288-16v1024q0 52-38 90t-90 38h-512q-52 0-90-38t-38-90v-1024q0-52 38-90t90-38h512q52 0 90 38t38 90z"/></symbol>
<symbol id="za-svg-money" viewBox="0 0 1792 1792"><path d="M704 1152h384v-96h-128v-448h-114l-148 137 77 80q42-37 55-57h2v288h-128v96zm512-256q0 70-21 142t-59.5 134-101.5 101-138 39-138-39-101.5-101-59.5-134-21-142 21-142 59.5-134 101.5-101 138-39 138 39 101.5 101 59.5 134 21 142zm512 256v-512q-106 0-181-75t-75-181h-1152q0 106-75 181t-181 75v512q106 0 181 75t75 181h1152q0-106 75-181t181-75zm128-832v1152q0 26-19 45t-45 19h-1792q-26 0-45-19t-19-45v-1152q0-26 19-45t45-19h1792q26 0 45 19t19 45z"/></symbol>
<symbol id="za-svg-newspaper-o" viewBox="0 0 1792 1792"><path d="M896 512h-384v384h384v-384zm128 640v128h-640v-128h640zm0-768v640h-640v-640h640zm640 768v128h-512v-128h512zm0-256v128h-512v-128h512zm0-256v128h-512v-128h512zm0-256v128h-512v-128h512zm-1536 960v-960h-128v960q0 26 19 45t45 19 45-19 19-45zm1664 0v-1088h-1536v1088q0 33-11 64h1483q26 0 45-19t19-45zm128-1216v1216q0 80-56 136t-136 56h-1664q-80 0-136-56t-56-136v-1088h256v-128h1792z"/></symbol>
<symbol id="za-svg-paypal" viewBox="0 0 1792 1792"><path d="M1647 646q18 84-4 204-87 444-565 444h-44q-25 0-44 16.5t-24 42.5l-4 19-55 346-2 15q-5 26-24.5 42.5t-44.5 16.5h-251q-21 0-33-15t-9-36q9-56 26.5-168t26.5-168 27-167.5 27-167.5q5-37 43-37h131q133 2 236-21 175-39 287-144 102-95 155-246 24-70 35-133 1-6 2.5-7.5t3.5-1 6 3.5q79 59 98 162zm-172-282q0 107-46 236-80 233-302 315-113 40-252 42 0 1-90 1l-90-1q-100 0-118 96-2 8-85 530-1 10-12 10h-295q-22 0-36.5-16.5t-11.5-38.5l232-1471q5-29 27.5-48t51.5-19h598q34 0 97.5 13t111.5 32q107 41 163.5 123t56.5 196z"/></symbol>
<symbol id="za-svg-pencil" viewBox="0 0 1792 1792"><path d="M491 1536l91-91-235-235-91 91v107h128v128h107zm523-928q0-22-22-22-10 0-17 7l-542 542q-7 7-7 17 0 22 22 22 10 0 17-7l542-542q7-7 7-17zm-54-192l416 416-832 832h-416v-416zm683 96q0 53-37 90l-166 166-416-416 166-165q36-38 90-38 53 0 91 38l235 234q37 39 37 91z"/></symbol>
<symbol id="za-svg-pencil-square" viewBox="0 0 1792 1792"><path d="M532 1108l152 152-52 52h-56v-96h-96v-56zm414-390q14 13-3 30l-291 291q-17 17-30 3-14-13 3-30l291-291q17-17 30-3zm-274 690l544-544-288-288-544 544v288h288zm608-608l92-92q28-28 28-68t-28-68l-152-152q-28-28-68-28t-68 28l-92 92zm384-384v960q0 119-84.5 203.5t-203.5 84.5h-960q-119 0-203.5-84.5t-84.5-203.5v-960q0-119 84.5-203.5t203.5-84.5h960q119 0 203.5 84.5t84.5 203.5z"/></symbol>
<symbol id="za-svg-phone" viewBox="0 0 1792 1792"><path d="M1600 1240q0 27-10 70.5t-21 68.5q-21 50-122 106-94 51-186 51-27 0-52.5-3.5t-57.5-12.5-47.5-14.5-55.5-20.5-49-18q-98-35-175-83-128-79-264.5-215.5t-215.5-264.5q-48-77-83-175-3-9-18-49t-20.5-55.5-14.5-47.5-12.5-57.5-3.5-52.5q0-92 51-186 56-101 106-122 25-11 68.5-21t70.5-10q14 0 21 3 18 6 53 76 11 19 30 54t35 63.5 31 53.5q3 4 17.5 25t21.5 35.5 7 28.5q0 20-28.5 50t-62 55-62 53-28.5 46q0 9 5 22.5t8.5 20.5 14 24 11.5 19q76 137 174 235t235 174q2 1 19 11.5t24 14 20.5 8.5 22.5 5q18 0 46-28.5t53-62 55-62 50-28.5q14 0 28.5 7t35.5 21.5 25 17.5q25 15 53.5 31t63.5 35 54 30q70 35 76 53 3 7 3 21z"/></symbol>
<symbol id="za-svg-phone-square" viewBox="0 0 1792 1792"><path d="M1408 1193q0-11-2-16-3-8-38.5-29.5t-88.5-49.5l-53-29q-5-3-19-13t-25-15-21-5q-18 0-47 32.5t-57 65.5-44 33q-7 0-16.5-3.5t-15.5-6.5-17-9.5-14-8.5q-99-55-170.5-126.5t-126.5-170.5q-2-3-8.5-14t-9.5-17-6.5-15.5-3.5-16.5q0-13 20.5-33.5t45-38.5 45-39.5 20.5-36.5q0-10-5-21t-15-25-13-19q-3-6-15-28.5t-25-45.5-26.5-47.5-25-40.5-16.5-18-16-2q-48 0-101 22-46 21-80 94.5t-34 130.5q0 16 2.5 34t5 30.5 9 33 10 29.5 12.5 33 11 30q60 164 216.5 320.5t320.5 216.5q6 2 30 11t33 12.5 29.5 10 33 9 30.5 5 34 2.5q57 0 130.5-34t94.5-80q22-53 22-101zm256-777v960q0 119-84.5 203.5t-203.5 84.5h-960q-119 0-203.5-84.5t-84.5-203.5v-960q0-119 84.5-203.5t203.5-84.5h960q119 0 203.5 84.5t84.5 203.5z"/></symbol>
<symbol id="za-svg-file-picture-o" viewBox="0 0 1792 1792"><path d="M1596 380q28 28 48 76t20 88v1152q0 40-28 68t-68 28h-1344q-40 0-68-28t-28-68v-1600q0-40 28-68t68-28h896q40 0 88 20t76 48zm-444-244v376h376q-10-29-22-41l-313-313q-12-12-41-22zm384 1528v-1024h-416q-40 0-68-28t-28-68v-416h-768v1536h1280zm-128-448v320h-1024v-192l192-192 128 128 384-384zm-832-192q-80 0-136-56t-56-136 56-136 136-56 136 56 56 136-56 136-136 56z"/></symbol>
<symbol id="za-svg-picture-o" viewBox="0 0 1792 1792"><path d="M576 576q0 80-56 136t-136 56-136-56-56-136 56-136 136-56 136 56 56 136zm1024 384v448h-1408v-192l320-320 160 160 512-512zm96-704h-1600q-13 0-22.5 9.5t-9.5 22.5v1216q0 13 9.5 22.5t22.5 9.5h1600q13 0 22.5-9.5t9.5-22.5v-1216q0-13-9.5-22.5t-22.5-9.5zm160 32v1216q0 66-47 113t-113 47h-1600q-66 0-113-47t-47-113v-1216q0-66 47-113t113-47h1600q66 0 113 47t47 113z"/></symbol>
<symbol id="za-svg-pie-chart" viewBox="0 0 1792 1792"><path d="M768 890l546 546q-106 108-247.5 168t-298.5 60q-209 0-385.5-103t-279.5-279.5-103-385.5 103-385.5 279.5-279.5 385.5-103v762zm187 6h773q0 157-60 298.5t-168 247.5zm709-128h-768v-768q209 0 385.5 103t279.5 279.5 103 385.5z"/></symbol>
<symbol id="za-svg-plus" viewBox="0 0 1792 1792"><path d="M1600 736v192q0 40-28 68t-68 28h-416v416q0 40-28 68t-68 28h-192q-40 0-68-28t-28-68v-416h-416q-40 0-68-28t-28-68v-192q0-40 28-68t68-28h416v-416q0-40 28-68t68-28h192q40 0 68 28t28 68v416h416q40 0 68 28t28 68z"/></symbol>
<symbol id="za-svg-plus-circle" viewBox="0 0 1792 1792"><path d="M1344 960v-128q0-26-19-45t-45-19h-256v-256q0-26-19-45t-45-19h-128q-26 0-45 19t-19 45v256h-256q-26 0-45 19t-19 45v128q0 26 19 45t45 19h256v256q0 26 19 45t45 19h128q26 0 45-19t19-45v-256h256q26 0 45-19t19-45zm320-64q0 209-103 385.5t-279.5 279.5-385.5 103-385.5-103-279.5-279.5-103-385.5 103-385.5 279.5-279.5 385.5-103 385.5 103 279.5 279.5 103 385.5z"/></symbol>
<symbol id="za-svg-plus-square" viewBox="0 0 1792 1792"><path d="M1408 960v-128q0-26-19-45t-45-19h-320v-320q0-26-19-45t-45-19h-128q-26 0-45 19t-19 45v320h-320q-26 0-45 19t-19 45v128q0 26 19 45t45 19h320v320q0 26 19 45t45 19h128q26 0 45-19t19-45v-320h320q26 0 45-19t19-45zm256-544v960q0 119-84.5 203.5t-203.5 84.5h-960q-119 0-203.5-84.5t-84.5-203.5v-960q0-119 84.5-203.5t203.5-84.5h960q119 0 203.5 84.5t84.5 203.5z"/></symbol>
<symbol id="za-svg-plus-square-o" viewBox="0 0 1792 1792"><path d="M1344 800v64q0 14-9 23t-23 9h-352v352q0 14-9 23t-23 9h-64q-14 0-23-9t-9-23v-352h-352q-14 0-23-9t-9-23v-64q0-14 9-23t23-9h352v-352q0-14 9-23t23-9h64q14 0 23 9t9 23v352h352q14 0 23 9t9 23zm128 448v-832q0-66-47-113t-113-47h-832q-66 0-113 47t-47 113v832q0 66 47 113t113 47h832q66 0 113-47t47-113zm128-832v832q0 119-84.5 203.5t-203.5 84.5h-832q-119 0-203.5-84.5t-84.5-203.5v-832q0-119 84.5-203.5t203.5-84.5h832q119 0 203.5 84.5t84.5 203.5z"/></symbol>
<symbol id="za-svg-power-off" viewBox="0 0 1792 1792"><path d="M1664 896q0 156-61 298t-164 245-245 164-298 61-298-61-245-164-164-245-61-298q0-182 80.5-343t226.5-270q43-32 95.5-25t83.5 50q32 42 24.5 94.5t-49.5 84.5q-98 74-151.5 181t-53.5 228q0 104 40.5 198.5t109.5 163.5 163.5 109.5 198.5 40.5 198.5-40.5 163.5-109.5 109.5-163.5 40.5-198.5q0-121-53.5-228t-151.5-181q-42-32-49.5-84.5t24.5-94.5q31-43 84-50t95 25q146 109 226.5 270t80.5 343zm-640-768v640q0 52-38 90t-90 38-90-38-38-90v-640q0-52 38-90t90-38 90 38 38 90z"/></symbol>
<symbol id="za-svg-print" viewBox="0 0 1792 1792"><path d="M448 1536h896v-256h-896v256zm0-640h896v-384h-160q-40 0-68-28t-28-68v-160h-640v640zm1152 64q0-26-19-45t-45-19-45 19-19 45 19 45 45 19 45-19 19-45zm128 0v416q0 13-9.5 22.5t-22.5 9.5h-224v160q0 40-28 68t-68 28h-960q-40 0-68-28t-28-68v-160h-224q-13 0-22.5-9.5t-9.5-22.5v-416q0-79 56.5-135.5t135.5-56.5h64v-544q0-40 28-68t68-28h672q40 0 88 20t76 48l152 152q28 28 48 76t20 88v256h64q79 0 135.5 56.5t56.5 135.5z"/></symbol>
<symbol id="za-svg-question" viewBox="0 0 1792 1792"><path d="M1088 1256v240q0 16-12 28t-28 12h-240q-16 0-28-12t-12-28v-240q0-16 12-28t28-12h240q16 0 28 12t12 28zm316-600q0 54-15.5 101t-35 76.5-55 59.5-57.5 43.5-61 35.5q-41 23-68.5 65t-27.5 67q0 17-12 32.5t-28 15.5h-240q-15 0-25.5-18.5t-10.5-37.5v-45q0-83 65-156.5t143-108.5q59-27 84-56t25-76q0-42-46.5-74t-107.5-32q-65 0-108 29-35 25-107 115-13 16-31 16-12 0-25-8l-164-125q-13-10-15.5-25t5.5-28q160-266 464-266 80 0 161 31t146 83 106 127.5 41 158.5z"/></symbol>
<symbol id="za-svg-question-circle" viewBox="0 0 1792 1792"><path d="M1024 1376v-192q0-14-9-23t-23-9h-192q-14 0-23 9t-9 23v192q0 14 9 23t23 9h192q14 0 23-9t9-23zm256-672q0-88-55.5-163t-138.5-116-170-41q-243 0-371 213-15 24 8 42l132 100q7 6 19 6 16 0 25-12 53-68 86-92 34-24 86-24 48 0 85.5 26t37.5 59q0 38-20 61t-68 45q-63 28-115.5 86.5t-52.5 125.5v36q0 14 9 23t23 9h192q14 0 23-9t9-23q0-19 21.5-49.5t54.5-49.5q32-18 49-28.5t46-35 44.5-48 28-60.5 12.5-81zm384 192q0 209-103 385.5t-279.5 279.5-385.5 103-385.5-103-279.5-279.5-103-385.5 103-385.5 279.5-279.5 385.5-103 385.5 103 279.5 279.5 103 385.5z"/></symbol>
<symbol id="za-svg-search" viewBox="0 0 1792 1792"><path d="M1216 832q0-185-131.5-316.5t-316.5-131.5-316.5 131.5-131.5 316.5 131.5 316.5 316.5 131.5 316.5-131.5 131.5-316.5zm512 832q0 52-38 90t-90 38q-54 0-90-38l-343-342q-179 124-399 124-143 0-273.5-55.5t-225-150-150-225-55.5-273.5 55.5-273.5 150-225 225-150 273.5-55.5 273.5 55.5 225 150 150 225 55.5 273.5q0 220-124 399l343 343q37 37 37 90z"/></symbol>
<symbol id="za-svg-share-square" viewBox="0 0 1792 1792"><path d="M1133 1101l352-352q19-19 19-45t-19-45l-352-352q-30-31-69-14-40 17-40 59v160q-119 0-216 19.5t-162.5 51-114 79-76.5 95.5-44.5 109-21.5 111.5-5 110.5q0 181 167 404 10 12 25 12 7 0 13-3 22-9 19-33-44-354 62-473 46-52 130-75.5t224-23.5v160q0 42 40 59 12 5 24 5 26 0 45-19zm531-685v960q0 119-84.5 203.5t-203.5 84.5h-960q-119 0-203.5-84.5t-84.5-203.5v-960q0-119 84.5-203.5t203.5-84.5h960q119 0 203.5 84.5t84.5 203.5z"/></symbol>
<symbol id="za-svg-share-square-o" viewBox="0 0 1792 1792"><path d="M1472 989v259q0 119-84.5 203.5t-203.5 84.5h-832q-119 0-203.5-84.5t-84.5-203.5v-832q0-119 84.5-203.5t203.5-84.5h255q13 0 22.5 9.5t9.5 22.5q0 27-26 32-77 26-133 60-10 4-16 4h-112q-66 0-113 47t-47 113v832q0 66 47 113t113 47h832q66 0 113-47t47-113v-214q0-19 18-29 28-13 54-37 16-16 35-8 21 9 21 29zm237-496l-384 384q-18 19-45 19-12 0-25-5-39-17-39-59v-192h-160q-323 0-438 131-119 137-74 473 3 23-20 34-8 2-12 2-16 0-26-13-10-14-21-31t-39.5-68.5-49.5-99.5-38.5-114-17.5-122q0-49 3.5-91t14-90 28-88 47-81.5 68.5-74 94.5-61.5 124.5-48.5 159.5-30.5 196.5-11h160v-192q0-42 39-59 13-5 25-5 26 0 45 19l384 384q19 19 19 45t-19 45z"/></symbol>
<symbol id="za-svg-shopping-cart" viewBox="0 0 1792 1792"><path d="M704 1536q0 52-38 90t-90 38-90-38-38-90 38-90 90-38 90 38 38 90zm896 0q0 52-38 90t-90 38-90-38-38-90 38-90 90-38 90 38 38 90zm128-1088v512q0 24-16.5 42.5t-40.5 21.5l-1044 122q13 60 13 70 0 16-24 64h920q26 0 45 19t19 45-19 45-45 19h-1024q-26 0-45-19t-19-45q0-11 8-31.5t16-36 21.5-40 15.5-29.5l-177-823h-204q-26 0-45-19t-19-45 19-45 45-19h256q16 0 28.5 6.5t19.5 15.5 13 24.5 8 26 5.5 29.5 4.5 26h1201q26 0 45 19t19 45z"/></symbol>
<symbol id="za-svg-square" viewBox="0 0 1792 1792"><path d="M1664 416v960q0 119-84.5 203.5t-203.5 84.5h-960q-119 0-203.5-84.5t-84.5-203.5v-960q0-119 84.5-203.5t203.5-84.5h960q119 0 203.5 84.5t84.5 203.5z"/></symbol>
<symbol id="za-svg-square-o" viewBox="0 0 1792 1792"><path d="M1312 256h-832q-66 0-113 47t-47 113v832q0 66 47 113t113 47h832q66 0 113-47t47-113v-832q0-66-47-113t-113-47zm288 160v832q0 119-84.5 203.5t-203.5 84.5h-832q-119 0-203.5-84.5t-84.5-203.5v-832q0-119 84.5-203.5t203.5-84.5h832q119 0 203.5 84.5t84.5 203.5z"/></symbol>
<symbol id="za-svg-times" viewBox="0 0 1792 1792"><path d="M1490 1322q0 40-28 68l-136 136q-28 28-68 28t-68-28l-294-294-294 294q-28 28-68 28t-68-28l-136-136q-28-28-28-68t28-68l294-294-294-294q-28-28-28-68t28-68l136-136q28-28 68-28t68 28l294 294 294-294q28-28 68-28t68 28l136 136q28 28 28 68t-28 68l-294 294 294 294q28 28 28 68z"/></symbol>
<symbol id="za-svg-times-circle" viewBox="0 0 1792 1792"><path d="M1277 1122q0-26-19-45l-181-181 181-181q19-19 19-45 0-27-19-46l-90-90q-19-19-46-19-26 0-45 19l-181 181-181-181q-19-19-45-19-27 0-46 19l-90 90q-19 19-19 46 0 26 19 45l181 181-181 181q-19 19-19 45 0 27 19 46l90 90q19 19 46 19 26 0 45-19l181-181 181 181q19 19 45 19 27 0 46-19l90-90q19-19 19-46zm387-226q0 209-103 385.5t-279.5 279.5-385.5 103-385.5-103-279.5-279.5-103-385.5 103-385.5 279.5-279.5 385.5-103 385.5 103 279.5 279.5 103 385.5z"/></symbol>
<symbol id="za-svg-times-circle-o" viewBox="0 0 1792 1792"><path d="M1225 1079l-146 146q-10 10-23 10t-23-10l-137-137-137 137q-10 10-23 10t-23-10l-146-146q-10-10-10-23t10-23l137-137-137-137q-10-10-10-23t10-23l146-146q10-10 23-10t23 10l137 137 137-137q10-10 23-10t23 10l146 146q10 10 10 23t-10 23l-137 137 137 137q10 10 10 23t-10 23zm215-183q0-148-73-273t-198-198-273-73-273 73-198 198-73 273 73 273 198 198 273 73 273-73 198-198 73-273zm224 0q0 209-103 385.5t-279.5 279.5-385.5 103-385.5-103-279.5-279.5-103-385.5 103-385.5 279.5-279.5 385.5-103 385.5 103 279.5 279.5 103 385.5z"/></symbol>
<symbol id="za-svg-truck" viewBox="0 0 1792 1792"><path d="M640 1408q0-52-38-90t-90-38-90 38-38 90 38 90 90 38 90-38 38-90zm-384-512h384v-256h-158q-13 0-22 9l-195 195q-9 9-9 22v30zm1280 512q0-52-38-90t-90-38-90 38-38 90 38 90 90 38 90-38 38-90zm256-1088v1024q0 15-4 26.5t-13.5 18.5-16.5 11.5-23.5 6-22.5 2-25.5 0-22.5-.5q0 106-75 181t-181 75-181-75-75-181h-384q0 106-75 181t-181 75-181-75-75-181h-64q-3 0-22.5.5t-25.5 0-22.5-2-23.5-6-16.5-11.5-13.5-18.5-4-26.5q0-26 19-45t45-19v-320q0-8-.5-35t0-38 2.5-34.5 6.5-37 14-30.5 22.5-30l198-198q19-19 50.5-32t58.5-13h160v-192q0-26 19-45t45-19h1024q26 0 45 19t19 45z"/></symbol>
<symbol id="za-svg-twitter" viewBox="0 0 1792 1792"><path d="M1684 408q-67 98-162 167 1 14 1 42 0 130-38 259.5t-115.5 248.5-184.5 210.5-258 146-323 54.5q-271 0-496-145 35 4 78 4 225 0 401-138-105-2-188-64.5t-114-159.5q33 5 61 5 43 0 85-11-112-23-185.5-111.5t-73.5-205.5v-4q68 38 146 41-66-44-105-115t-39-154q0-88 44-163 121 149 294.5 238.5t371.5 99.5q-8-38-8-74 0-134 94.5-228.5t228.5-94.5q140 0 236 102 109-21 205-78-37 115-142 178 93-10 186-50z"/></symbol>
<symbol id="za-svg-umbrella" viewBox="0 0 1792 1792"><path d="M960 828v580q0 104-76 180t-180 76-180-76-76-180q0-26 19-45t45-19 45 19 19 45q0 50 39 89t89 39 89-39 39-89v-580q33-11 64-11t64 11zm768 27q0 13-9.5 22.5t-22.5 9.5q-11 0-23-10-49-46-93-69t-102-23q-68 0-128 37t-103 97q-7 10-17.5 28t-14.5 24q-11 17-28 17-18 0-29-17-4-6-14.5-24t-17.5-28q-43-60-102.5-97t-127.5-37-127.5 37-102.5 97q-7 10-17.5 28t-14.5 24q-11 17-29 17-17 0-28-17-4-6-14.5-24t-17.5-28q-43-60-103-97t-128-37q-58 0-102 23t-93 69q-12 10-23 10-13 0-22.5-9.5t-9.5-22.5q0-5 1-7 45-183 172.5-319.5t298-204.5 360.5-68q140 0 274.5 40t246.5 113.5 194.5 187 115.5 251.5q1 2 1 7zm-768-727v98q-42-2-64-2t-64 2v-98q0-26 19-45t45-19 45 19 19 45z"/></symbol>
<symbol id="za-svg-university" viewBox="0 0 1792 1792"><path d="M832 0l960 384v128h-128q0 26-20.5 45t-48.5 19h-1526q-28 0-48.5-19t-20.5-45h-128v-128zm-704 640h256v768h128v-768h256v768h128v-768h256v768h128v-768h256v768h59q28 0 48.5 19t20.5 45v64h-1664v-64q0-26 20.5-45t48.5-19h59v-768zm1595 960q28 0 48.5 19t20.5 45v128h-1920v-128q0-26 20.5-45t48.5-19h1782z"/></symbol>
<symbol id="za-svg-unlink" viewBox="0 0 1792 1792"><path d="M503 1271l-256 256q-10 9-23 9-12 0-23-9-9-10-9-23t9-23l256-256q10-9 23-9t23 9q9 10 9 23t-9 23zm169 41v320q0 14-9 23t-23 9-23-9-9-23v-320q0-14 9-23t23-9 23 9 9 23zm-224-224q0 14-9 23t-23 9h-320q-14 0-23-9t-9-23 9-23 23-9h320q14 0 23 9t9 23zm1264 128q0 120-85 203l-147 146q-83 83-203 83-121 0-204-85l-334-335q-21-21-42-56l239-18 273 274q27 27 68 27.5t68-26.5l147-146q28-28 28-67 0-40-28-68l-274-275 18-239q35 21 56 42l336 336q84 86 84 204zm-617-724l-239 18-273-274q-28-28-68-28-39 0-68 27l-147 146q-28 28-28 67 0 40 28 68l274 274-18 240q-35-21-56-42l-336-336q-84-86-84-204 0-120 85-203l147-146q83-83 203-83 121 0 204 85l334 335q21 21 42 56zm633 84q0 14-9 23t-23 9h-320q-14 0-23-9t-9-23 9-23 23-9h320q14 0 23 9t9 23zm-544-544v320q0 14-9 23t-23 9-23-9-9-23v-320q0-14 9-23t23-9 23 9 9 23zm407 151l-256 256q-11 9-23 9t-23-9q-9-10-9-23t9-23l256-256q10-9 23-9t23 9q9 10 9 23t-9 23z"/></symbol>
<symbol id="za-svg-user" viewBox="0 0 1792 1792"><path d="M1600 1405q0 120-73 189.5t-194 69.5h-874q-121 0-194-69.5t-73-189.5q0-53 3.5-103.5t14-109 26.5-108.5 43-97.5 62-81 85.5-53.5 111.5-20q9 0 42 21.5t74.5 48 108 48 133.5 21.5 133.5-21.5 108-48 74.5-48 42-21.5q61 0 111.5 20t85.5 53.5 62 81 43 97.5 26.5 108.5 14 109 3.5 103.5zm-320-893q0 159-112.5 271.5t-271.5 112.5-271.5-112.5-112.5-271.5 112.5-271.5 271.5-112.5 271.5 112.5 112.5 271.5z"/></symbol>
<symbol id="za-svg-users" viewBox="0 0 1792 1792"><path d="M529 896q-162 5-265 128h-134q-82 0-138-40.5t-56-118.5q0-353 124-353 6 0 43.5 21t97.5 42.5 119 21.5q67 0 133-23-5 37-5 66 0 139 81 256zm1071 637q0 120-73 189.5t-194 69.5h-874q-121 0-194-69.5t-73-189.5q0-53 3.5-103.5t14-109 26.5-108.5 43-97.5 62-81 85.5-53.5 111.5-20q10 0 43 21.5t73 48 107 48 135 21.5 135-21.5 107-48 73-48 43-21.5q61 0 111.5 20t85.5 53.5 62 81 43 97.5 26.5 108.5 14 109 3.5 103.5zm-1024-1277q0 106-75 181t-181 75-181-75-75-181 75-181 181-75 181 75 75 181zm704 384q0 159-112.5 271.5t-271.5 112.5-271.5-112.5-112.5-271.5 112.5-271.5 271.5-112.5 271.5 112.5 112.5 271.5zm576 225q0 78-56 118.5t-138 40.5h-134q-103-123-265-128 81-117 81-256 0-29-5-66 66 23 133 23 59 0 119-21.5t97.5-42.5 43.5-21q124 0 124 353zm-128-609q0 106-75 181t-181 75-181-75-75-181 75-181 181-75 181 75 75 181z"/></symbol>
<symbol id="za-svg-unlock" viewBox="0 0 1792 1792"><path d="M1728 576v256q0 26-19 45t-45 19h-64q-26 0-45-19t-19-45v-256q0-106-75-181t-181-75-181 75-75 181v192h96q40 0 68 28t28 68v576q0 40-28 68t-68 28h-960q-40 0-68-28t-28-68v-576q0-40 28-68t68-28h672v-192q0-185 131.5-316.5t316.5-131.5 316.5 131.5 131.5 316.5z"/></symbol>
<symbol id="za-svg-unlock-alt" viewBox="0 0 1792 1792"><path d="M1376 768q40 0 68 28t28 68v576q0 40-28 68t-68 28h-960q-40 0-68-28t-28-68v-576q0-40 28-68t68-28h32v-320q0-185 131.5-316.5t316.5-131.5 316.5 131.5 131.5 316.5q0 26-19 45t-45 19h-64q-26 0-45-19t-19-45q0-106-75-181t-181-75-181 75-75 181v320h736z"/></symbol>
<symbol id="za-svg-spin5" viewBox="0 0 1000 1000"><path d="M462.25 0c-6.371 0 -11.531 5.159 -11.531 11.531l0 182.219l.031 0c0 6.347 5.153 11.5 11.5 11.5l69.063 0c.343 .03 .68 .031 1.031 .031 6.372 0 11.531 -5.16 11.531 -11.531l0 -182.219l-.031 0c0 -6.347 -5.153 -11.5 -11.5 -11.5l-69.094 0c-.328 -.03 -.663 -.031 -1 -.031zm249.594 46.594c-4.082 -.111 -8.091 1.968 -10.281 5.75l-91.094 157.781l0 .062c-3.161 5.5 -1.282 12.528 4.219 15.688l60.063 34.656c.203 .136 .41 .251 .625 .375 5.5 3.187 12.533 1.313 15.719 -4.188l91.125 -157.813c3.187 -5.5 1.282 -12.533 -4.219 -15.719l-60.688 -35.063c-1.719 -.996 -3.613 -1.481 -5.469 -1.531zm-428.375 2.688c-1.856 .051 -3.75 .567 -5.469 1.563l-60.688 35.063c-5.474 3.17 -7.372 10.199 -4.219 15.688l90.781 157.219c.106 .21 .224 .418 .344 .625 3.187 5.5 10.218 7.373 15.719 4.188l60.719 -35.063c5.474 -3.17 7.341 -10.199 4.188 -15.688l-90.75 -157.188c-.107 -.217 -.221 -.444 -.344 -.656 -2.19 -3.782 -6.199 -5.861 -10.281 -5.75zm620.375 162.313c-1.848 .046 -3.722 .515 -5.438 1.5l-157.219 90.781c-.21 .106 -.418 .224 -.625 .344 -5.5 3.187 -7.373 10.218 -4.188 15.719l35.063 60.719c3.17 5.474 10.199 7.341 15.688 4.188l157.188 -90.75c.217 -.107 .444 -.221 .656 -.344 5.5 -3.185 7.374 -10.25 4.188 -15.75l-35.063 -60.688c-2.179 -3.764 -6.184 -5.82 -10.25 -5.719zm-810.375 4.656c-4.082 -.111 -8.091 1.968 -10.281 5.75l-35.063 60.688c-3.187 5.5 -1.282 12.565 4.219 15.75l157.781 91.094l.062 0c5.5 3.161 12.528 1.282 15.688 -4.219l34.656 -60.063c.136 -.203 .251 -.41 .375 -.625 3.187 -5.5 1.313 -12.533 -4.188 -15.719l-157.813 -91.125c-1.719 -.996 -3.582 -1.481 -5.438 -1.531zm712.781 234.469l0 .031c-6.347 0 -11.5 5.153 -11.5 11.5l0 69.063c-.029 .343 -.063 .68 -.063 1.031 0 6.372 5.192 11.531 11.563 11.531l182.219 0l0 -.031c6.347 0 11.5 -5.153 11.5 -11.5l0 -69.094c.03 -.328 .031 -.663 .031 -1 0 -6.371 -5.159 -11.531 -11.531 -11.531l-182.219 0zm-794.719 5.406l0 .031c-6.347 0 -11.5 5.153 -11.5 11.5l0 69.094c-.03 .328 -.031 .663 -.031 1 0 6.371 5.159 11.531 11.531 11.531l182.219 0l0 -.031c6.347 0 11.5 -5.153 11.5 -11.5l0 -69.063c.03 -.343 .031 -.68 .031 -1.031 0 -6.372 -5.16 -11.531 -11.531 -11.531l-182.219 0zm772.844 152.813c-4.075 -.097 -8.078 1.968 -10.25 5.75l-34.656 60.063c-.136 .203 -.251 .41 -.375 .625 -3.187 5.5 -1.313 12.533 4.188 15.719l157.813 91.125c5.5 3.187 12.533 1.282 15.719 -4.219l35.063 -60.688c3.187 -5.5 1.282 -12.565 -4.219 -15.75l-157.781 -91.094l-.062 0c-1.719 -.988 -3.585 -1.487 -5.438 -1.531zm-566.063 4.688c-1.848 .046 -3.722 .546 -5.438 1.531l-157.188 90.75c-.217 .107 -.444 .221 -.656 .344 -5.5 3.185 -7.374 10.25 -4.188 15.75l35.063 60.688c3.17 5.474 10.199 7.372 15.688 4.219l157.219 -90.781c.21 -.106 .418 -.224 .625 -.344 5.5 -3.187 7.373 -10.218 4.188 -15.719l-35.063 -60.719c-2.179 -3.764 -6.184 -5.82 -10.25 -5.719zm467.188 121.188c-1.856 .051 -3.719 .567 -5.438 1.563l-60.719 35.063c-5.474 3.17 -7.341 10.199 -4.188 15.688l90.75 157.188c.107 .217 .221 .444 .344 .656 3.185 5.5 10.25 7.374 15.75 4.188l60.688 -35.063c5.474 -3.17 7.372 -10.199 4.219 -15.688l-90.781 -157.219c-.106 -.21 -.224 -.418 -.344 -.625 -2.191 -3.782 -6.199 -5.861 -10.281 -5.75zm-366.313 2.719c-4.082 -.111 -8.091 1.968 -10.281 5.75l-91.125 157.813c-3.187 5.5 -1.282 12.533 4.219 15.719l60.688 35.063c5.5 3.187 12.565 1.282 15.75 -4.219l91.094 -157.781l0 -.062c3.161 -5.5 1.282 -12.528 -4.219 -15.688l-60.063 -34.656c-.203 -.136 -.41 -.251 -.625 -.375 -1.719 -.996 -3.582 -1.512 -5.438 -1.563zm148.469 57.156c-6.372 0 -11.531 5.192 -11.531 11.563l0 182.219l.031 0c0 6.347 5.153 11.5 11.5 11.5l69.094 0c.328 .03 .663 .031 1 .031 6.371 0 11.531 -5.159 11.531 -11.531l0 -182.219l-.031 0c0 -6.347 -5.153 -11.5 -11.5 -11.5l-69.063 0c-.343 -.029 -.68 -.063 -1.031 -.063z"/></symbol>
<symbol id="za-svg-wrench" viewBox="0 0 1792 1792"><path d="M448 1472q0-26-19-45t-45-19-45 19-19 45 19 45 45 19 45-19 19-45zm644-420l-682 682q-37 37-90 37-52 0-91-37l-106-108q-38-36-38-90 0-53 38-91l681-681q39 98 114.5 173.5t173.5 114.5zm634-435q0 39-23 106-47 134-164.5 217.5t-258.5 83.5q-185 0-316.5-131.5t-131.5-316.5 131.5-316.5 316.5-131.5q58 0 121.5 16.5t107.5 46.5q16 11 16 28t-16 28l-293 169v224l193 107q5-3 79-48.5t135.5-81 70.5-35.5q15 0 23.5 10t8.5 25z"/></symbol>
</svg>
